<svg version="1.2" xmlns="http://www.w3.org/2000/svg" viewBox="0 0 298 359" width="298" height="359">
	<path fill="#262626"
		d="m149 349.56c-80.19 0-145-66.5-145-148.78 0-82.27 64.82-148.78 145-148.78 80.19 0 145 66.51 145 148.78 0 82.28-64.81 148.78-145 148.78zm0-49c-71.89 0-130-66.5-130-148.78 0-82.27 58.11-148.78 130-148.78 71.89 0 130 66.51 130 148.78 0 82.28-58.11 148.78-130 148.78zm-0.5 53.14c-79.13 0-143.09-77.52-143.09-173.42 0-95.9 63.96-173.42 143.09-173.42 79.13 0 143.09 77.52 143.09 173.42 0 95.9-63.96 173.42-143.09 173.42zm0.72 1.69c-80.01 0-144.68-75.96-144.68-169.94 0-93.97 64.67-169.94 144.68-169.94 80.02 0 144.69 75.97 144.69 169.94 0 93.98-64.67 169.94-144.69 169.94zm-0.53-4c-80.02 0-144.69-65.79-144.69-147.19 0-81.4 64.67-147.2 144.69-147.2 80.01 0 144.68 65.8 144.68 147.2 0 81.4-64.67 147.19-144.68 147.19zm0.06-8.7c-80.98 0-146.44-70.64-146.44-158.03 0-87.39 65.46-158.03 146.44-158.03 80.98 0 146.44 70.64 146.44 158.03 0 87.39-65.46 158.03-146.44 158.03zm0-20.97c-76.45 0-138.24-70.65-138.24-158.06 0-87.41 61.79-158.06 138.24-158.06 76.46 0 138.25 70.65 138.25 158.06 0 87.41-61.79 158.06-138.25 158.06zm0-4.47c-73.46 0-132.85-70.44-132.85-157.59 0-87.14 59.39-157.58 132.85-157.58 73.47 0 132.86 70.44 132.86 157.58 0 87.15-59.39 157.59-132.86 157.59z" />
</svg>
